<svg width="112" height="112" viewBox="0 0 112 112" fill="none" xmlns="http://www.w3.org/2000/svg">
<circle opacity="0.5" cx="56" cy="56" r="56" fill="#EF233C"/>
<path fill-rule="evenodd" clip-rule="evenodd" d="M55.2 89.6C63.8991 89.6 72.2419 86.1443 78.3931 79.9931C84.5443 73.8419 88 65.4991 88 56.8C88 48.1009 84.5443 39.7581 78.3931 33.6069C72.2419 27.4557 63.8991 24 55.2 24C46.5009 24 38.1581 27.4557 32.0069 33.6069C25.8557 39.7581 22.4 48.1009 22.4 56.8C22.4 65.4991 25.8557 73.8419 32.0069 79.9931C38.1581 86.1443 46.5009 89.6 55.2 89.6ZM53.3755 45.1888C52.758 44.7768 52.0403 44.5402 51.2989 44.5042C50.5575 44.4682 49.8202 44.6341 49.1658 44.9843C48.5113 45.3345 47.9641 45.8558 47.5827 46.4926C47.2013 47.1293 46.9999 47.8577 47 48.6V65C46.9999 65.7423 47.2013 66.4707 47.5827 67.1074C47.9641 67.7442 48.5113 68.2655 49.1658 68.6157C49.8202 68.9659 50.5575 69.1318 51.2989 69.0958C52.0403 69.0598 52.758 68.8232 53.3755 68.4112L65.6755 60.2112C66.237 59.8368 66.6974 59.3295 67.0159 58.7345C67.3343 58.1394 67.5009 57.4749 67.5009 56.8C67.5009 56.1251 67.3343 55.4606 67.0159 54.8655C66.6974 54.2705 66.237 53.7632 65.6755 53.3888L53.3755 45.1888Z" fill="white"/>
</svg>
